<mxfile host="app.diagrams.net" modified="2023-06-04T15:09:45.068Z" agent="Mozilla/5.0 (Windows NT 10.0; Win64; x64) AppleWebKit/537.36 (KHTML, like Gecko) Chrome/113.0.0.0 Safari/537.36" etag="uZi-S_HTlGf5zb6Z9Z6k" version="21.3.7" type="github">
  <diagram name="Page-1" id="10a91c8b-09ff-31b1-d368-03940ed4cc9e">
    <mxGraphModel dx="1235" dy="669" grid="1" gridSize="10" guides="1" tooltips="1" connect="1" arrows="1" fold="1" page="1" pageScale="1" pageWidth="1100" pageHeight="850" background="none" math="0" shadow="0">
      <root>
        <mxCell id="0" />
        <mxCell id="1" parent="0" />
        <mxCell id="FDhGqmkJ39EE4WDYJWKc-30" style="rounded=0;orthogonalLoop=1;jettySize=auto;html=1;entryX=0.5;entryY=0;entryDx=0;entryDy=0;exitX=0.5;exitY=1;exitDx=0;exitDy=0;" edge="1" parent="1" source="FDhGqmkJ39EE4WDYJWKc-1" target="FDhGqmkJ39EE4WDYJWKc-3">
          <mxGeometry relative="1" as="geometry" />
        </mxCell>
        <mxCell id="FDhGqmkJ39EE4WDYJWKc-31" style="rounded=0;orthogonalLoop=1;jettySize=auto;html=1;entryX=0.5;entryY=0;entryDx=0;entryDy=0;exitX=0.5;exitY=1;exitDx=0;exitDy=0;" edge="1" parent="1" source="FDhGqmkJ39EE4WDYJWKc-1" target="FDhGqmkJ39EE4WDYJWKc-2">
          <mxGeometry relative="1" as="geometry" />
        </mxCell>
        <mxCell id="FDhGqmkJ39EE4WDYJWKc-32" style="rounded=0;orthogonalLoop=1;jettySize=auto;html=1;entryX=0.5;entryY=0;entryDx=0;entryDy=0;exitX=0.5;exitY=1;exitDx=0;exitDy=0;" edge="1" parent="1" source="FDhGqmkJ39EE4WDYJWKc-1" target="FDhGqmkJ39EE4WDYJWKc-5">
          <mxGeometry relative="1" as="geometry" />
        </mxCell>
        <mxCell id="FDhGqmkJ39EE4WDYJWKc-33" style="rounded=0;orthogonalLoop=1;jettySize=auto;html=1;entryX=0.5;entryY=0;entryDx=0;entryDy=0;exitX=0.5;exitY=1;exitDx=0;exitDy=0;" edge="1" parent="1" source="FDhGqmkJ39EE4WDYJWKc-1" target="FDhGqmkJ39EE4WDYJWKc-4">
          <mxGeometry relative="1" as="geometry" />
        </mxCell>
        <mxCell id="FDhGqmkJ39EE4WDYJWKc-38" style="rounded=0;orthogonalLoop=1;jettySize=auto;html=1;entryX=0.5;entryY=0;entryDx=0;entryDy=0;exitX=0.5;exitY=1;exitDx=0;exitDy=0;" edge="1" parent="1" source="FDhGqmkJ39EE4WDYJWKc-1" target="FDhGqmkJ39EE4WDYJWKc-37">
          <mxGeometry relative="1" as="geometry" />
        </mxCell>
        <mxCell id="FDhGqmkJ39EE4WDYJWKc-1" value="数字安全素养" style="rounded=0;whiteSpace=wrap;html=1;fontSize=15;" vertex="1" parent="1">
          <mxGeometry x="600" y="40" width="130" height="40" as="geometry" />
        </mxCell>
        <mxCell id="FDhGqmkJ39EE4WDYJWKc-34" style="rounded=0;orthogonalLoop=1;jettySize=auto;html=1;entryX=0.5;entryY=0;entryDx=0;entryDy=0;exitX=0.5;exitY=1;exitDx=0;exitDy=0;" edge="1" parent="1" source="FDhGqmkJ39EE4WDYJWKc-2" target="FDhGqmkJ39EE4WDYJWKc-6">
          <mxGeometry relative="1" as="geometry" />
        </mxCell>
        <mxCell id="FDhGqmkJ39EE4WDYJWKc-35" style="rounded=0;orthogonalLoop=1;jettySize=auto;html=1;entryX=0.5;entryY=0;entryDx=0;entryDy=0;exitX=0.5;exitY=1;exitDx=0;exitDy=0;" edge="1" parent="1" source="FDhGqmkJ39EE4WDYJWKc-2" target="FDhGqmkJ39EE4WDYJWKc-14">
          <mxGeometry relative="1" as="geometry" />
        </mxCell>
        <mxCell id="FDhGqmkJ39EE4WDYJWKc-36" style="rounded=0;orthogonalLoop=1;jettySize=auto;html=1;entryX=0.5;entryY=0;entryDx=0;entryDy=0;exitX=0.5;exitY=1;exitDx=0;exitDy=0;" edge="1" parent="1" source="FDhGqmkJ39EE4WDYJWKc-2" target="FDhGqmkJ39EE4WDYJWKc-7">
          <mxGeometry relative="1" as="geometry" />
        </mxCell>
        <mxCell id="FDhGqmkJ39EE4WDYJWKc-2" value="设备安全" style="rounded=0;whiteSpace=wrap;html=1;fontSize=15;" vertex="1" parent="1">
          <mxGeometry x="160" y="150" width="130" height="40" as="geometry" />
        </mxCell>
        <mxCell id="FDhGqmkJ39EE4WDYJWKc-29" style="rounded=0;orthogonalLoop=1;jettySize=auto;html=1;entryX=0.5;entryY=0;entryDx=0;entryDy=0;exitX=0.5;exitY=1;exitDx=0;exitDy=0;" edge="1" parent="1" source="FDhGqmkJ39EE4WDYJWKc-3" target="FDhGqmkJ39EE4WDYJWKc-19">
          <mxGeometry relative="1" as="geometry" />
        </mxCell>
        <mxCell id="FDhGqmkJ39EE4WDYJWKc-45" style="rounded=0;orthogonalLoop=1;jettySize=auto;html=1;entryX=0.5;entryY=0;entryDx=0;entryDy=0;exitX=0.5;exitY=1;exitDx=0;exitDy=0;" edge="1" parent="1" source="FDhGqmkJ39EE4WDYJWKc-3" target="FDhGqmkJ39EE4WDYJWKc-44">
          <mxGeometry relative="1" as="geometry" />
        </mxCell>
        <mxCell id="FDhGqmkJ39EE4WDYJWKc-3" value="网络安全" style="rounded=0;whiteSpace=wrap;html=1;fontSize=15;" vertex="1" parent="1">
          <mxGeometry x="390" y="150" width="130" height="40" as="geometry" />
        </mxCell>
        <mxCell id="FDhGqmkJ39EE4WDYJWKc-26" style="rounded=0;orthogonalLoop=1;jettySize=auto;html=1;entryX=0.5;entryY=0;entryDx=0;entryDy=0;exitX=0.5;exitY=1;exitDx=0;exitDy=0;" edge="1" parent="1" source="FDhGqmkJ39EE4WDYJWKc-4" target="FDhGqmkJ39EE4WDYJWKc-8">
          <mxGeometry relative="1" as="geometry">
            <mxPoint x="750" y="240" as="targetPoint" />
          </mxGeometry>
        </mxCell>
        <mxCell id="FDhGqmkJ39EE4WDYJWKc-27" style="rounded=0;orthogonalLoop=1;jettySize=auto;html=1;entryX=0.5;entryY=0;entryDx=0;entryDy=0;exitX=0.5;exitY=1;exitDx=0;exitDy=0;" edge="1" parent="1" source="FDhGqmkJ39EE4WDYJWKc-4" target="FDhGqmkJ39EE4WDYJWKc-10">
          <mxGeometry relative="1" as="geometry">
            <mxPoint x="885" y="240" as="targetPoint" />
          </mxGeometry>
        </mxCell>
        <mxCell id="FDhGqmkJ39EE4WDYJWKc-28" style="rounded=0;orthogonalLoop=1;jettySize=auto;html=1;entryX=0.5;entryY=0;entryDx=0;entryDy=0;exitX=0.5;exitY=1;exitDx=0;exitDy=0;" edge="1" parent="1" source="FDhGqmkJ39EE4WDYJWKc-4" target="FDhGqmkJ39EE4WDYJWKc-9">
          <mxGeometry relative="1" as="geometry" />
        </mxCell>
        <mxCell id="FDhGqmkJ39EE4WDYJWKc-4" value="信息安全" style="rounded=0;whiteSpace=wrap;html=1;fontSize=15;" vertex="1" parent="1">
          <mxGeometry x="820" y="150" width="130" height="40" as="geometry" />
        </mxCell>
        <mxCell id="FDhGqmkJ39EE4WDYJWKc-17" style="orthogonalLoop=1;jettySize=auto;html=1;entryX=0.5;entryY=0;entryDx=0;entryDy=0;rounded=0;exitX=0.5;exitY=1;exitDx=0;exitDy=0;" edge="1" parent="1" source="FDhGqmkJ39EE4WDYJWKc-5" target="FDhGqmkJ39EE4WDYJWKc-15">
          <mxGeometry relative="1" as="geometry" />
        </mxCell>
        <mxCell id="FDhGqmkJ39EE4WDYJWKc-18" style="rounded=0;orthogonalLoop=1;jettySize=auto;html=1;entryX=0.5;entryY=0;entryDx=0;entryDy=0;exitX=0.5;exitY=1;exitDx=0;exitDy=0;" edge="1" parent="1" source="FDhGqmkJ39EE4WDYJWKc-5" target="FDhGqmkJ39EE4WDYJWKc-16">
          <mxGeometry relative="1" as="geometry" />
        </mxCell>
        <mxCell id="FDhGqmkJ39EE4WDYJWKc-5" value="应用安全" style="rounded=0;whiteSpace=wrap;html=1;fontSize=15;" vertex="1" parent="1">
          <mxGeometry x="610" y="150" width="130" height="40" as="geometry" />
        </mxCell>
        <mxCell id="FDhGqmkJ39EE4WDYJWKc-6" value="密码管理" style="rounded=0;whiteSpace=wrap;html=1;fontSize=15;" vertex="1" parent="1">
          <mxGeometry x="160" y="365" width="130" height="40" as="geometry" />
        </mxCell>
        <mxCell id="FDhGqmkJ39EE4WDYJWKc-7" value="身份验证管理" style="rounded=0;whiteSpace=wrap;html=1;fontSize=15;" vertex="1" parent="1">
          <mxGeometry x="80" y="310" width="130" height="40" as="geometry" />
        </mxCell>
        <mxCell id="FDhGqmkJ39EE4WDYJWKc-8" value="过滤有害信息" style="rounded=0;whiteSpace=wrap;html=1;fontSize=15;" vertex="1" parent="1">
          <mxGeometry x="795" y="340" width="130" height="40" as="geometry" />
        </mxCell>
        <mxCell id="FDhGqmkJ39EE4WDYJWKc-9" value="保护敏感信息" style="rounded=0;whiteSpace=wrap;html=1;fontSize=15;" vertex="1" parent="1">
          <mxGeometry x="935" y="340" width="130" height="40" as="geometry" />
        </mxCell>
        <mxCell id="FDhGqmkJ39EE4WDYJWKc-10" value="不产生且不传递&lt;br&gt;有害信息虚假信息" style="rounded=0;whiteSpace=wrap;html=1;fontSize=15;" vertex="1" parent="1">
          <mxGeometry x="855" y="405" width="130" height="40" as="geometry" />
        </mxCell>
        <mxCell id="FDhGqmkJ39EE4WDYJWKc-14" value="权限控制" style="rounded=0;whiteSpace=wrap;html=1;fontSize=15;" vertex="1" parent="1">
          <mxGeometry x="240" y="310" width="130" height="40" as="geometry" />
        </mxCell>
        <mxCell id="FDhGqmkJ39EE4WDYJWKc-15" value="正确下载安装更新软件" style="rounded=0;whiteSpace=wrap;html=1;fontSize=15;" vertex="1" parent="1">
          <mxGeometry x="550" y="350" width="130" height="40" as="geometry" />
        </mxCell>
        <mxCell id="FDhGqmkJ39EE4WDYJWKc-16" value="防病毒软件使用" style="rounded=0;whiteSpace=wrap;html=1;fontSize=15;" vertex="1" parent="1">
          <mxGeometry x="650" y="290" width="130" height="40" as="geometry" />
        </mxCell>
        <mxCell id="FDhGqmkJ39EE4WDYJWKc-19" value="连接可信网络" style="rounded=0;whiteSpace=wrap;html=1;fontSize=15;" vertex="1" parent="1">
          <mxGeometry x="340" y="250" width="130" height="40" as="geometry" />
        </mxCell>
        <mxCell id="FDhGqmkJ39EE4WDYJWKc-24" style="rounded=0;orthogonalLoop=1;jettySize=auto;html=1;entryX=0.5;entryY=0;entryDx=0;entryDy=0;exitX=0.5;exitY=1;exitDx=0;exitDy=0;" edge="1" parent="1" source="FDhGqmkJ39EE4WDYJWKc-4" target="FDhGqmkJ39EE4WDYJWKc-23">
          <mxGeometry relative="1" as="geometry">
            <mxPoint x="750" y="280" as="sourcePoint" />
          </mxGeometry>
        </mxCell>
        <mxCell id="FDhGqmkJ39EE4WDYJWKc-23" value="检索有效信息" style="rounded=0;whiteSpace=wrap;html=1;fontSize=15;" vertex="1" parent="1">
          <mxGeometry x="720" y="405" width="130" height="40" as="geometry" />
        </mxCell>
        <mxCell id="FDhGqmkJ39EE4WDYJWKc-42" style="rounded=0;orthogonalLoop=1;jettySize=auto;html=1;entryX=0.5;entryY=0;entryDx=0;entryDy=0;exitX=0.5;exitY=1;exitDx=0;exitDy=0;" edge="1" parent="1" source="FDhGqmkJ39EE4WDYJWKc-37" target="FDhGqmkJ39EE4WDYJWKc-40">
          <mxGeometry relative="1" as="geometry" />
        </mxCell>
        <mxCell id="FDhGqmkJ39EE4WDYJWKc-43" style="rounded=0;orthogonalLoop=1;jettySize=auto;html=1;entryX=0.5;entryY=0;entryDx=0;entryDy=0;exitX=0.5;exitY=1;exitDx=0;exitDy=0;" edge="1" parent="1" source="FDhGqmkJ39EE4WDYJWKc-37" target="FDhGqmkJ39EE4WDYJWKc-41">
          <mxGeometry relative="1" as="geometry" />
        </mxCell>
        <mxCell id="FDhGqmkJ39EE4WDYJWKc-37" value="数据安全" style="rounded=0;whiteSpace=wrap;html=1;fontSize=15;" vertex="1" parent="1">
          <mxGeometry x="1040" y="150" width="130" height="40" as="geometry" />
        </mxCell>
        <mxCell id="FDhGqmkJ39EE4WDYJWKc-40" value="数据加密" style="rounded=0;whiteSpace=wrap;html=1;fontSize=15;" vertex="1" parent="1">
          <mxGeometry x="980" y="250" width="130" height="40" as="geometry" />
        </mxCell>
        <mxCell id="FDhGqmkJ39EE4WDYJWKc-41" value="数据备份和恢复" style="rounded=0;whiteSpace=wrap;html=1;fontSize=15;" vertex="1" parent="1">
          <mxGeometry x="1120" y="250" width="130" height="40" as="geometry" />
        </mxCell>
        <mxCell id="FDhGqmkJ39EE4WDYJWKc-44" value="使用安全信道传输" style="rounded=0;whiteSpace=wrap;html=1;fontSize=15;" vertex="1" parent="1">
          <mxGeometry x="450" y="300" width="130" height="40" as="geometry" />
        </mxCell>
      </root>
    </mxGraphModel>
  </diagram>
</mxfile>
